<svg xmlns="http://www.w3.org/2000/svg" fill="none" viewBox="0 0 805 86"><path fill="#3666EC" d="M0 0h450l-33 86H0V0Z"/><path fill="#fff" d="M59.8 64.93c-6.159 0-11.408-2.087-15.748-6.262-4.299-4.175-6.448-9.713-6.448-16.616 0-6.861 2.19-12.4 6.572-16.616 4.381-4.216 9.569-6.324 15.562-6.324 5.29 0 9.63 1.343 13.02 4.03 3.43 2.687 5.683 6.097 6.758 10.23l-7.006 2.356c-.703-2.852-2.129-5.167-4.278-6.944-2.15-1.777-4.98-2.666-8.494-2.666-3.927 0-7.337 1.405-10.23 4.216-2.852 2.77-4.278 6.675-4.278 11.718 0 4.919 1.426 8.783 4.278 11.594C52.36 56.416 55.791 57.8 59.8 57.8c3.43 0 6.262-.93 8.494-2.79 2.232-1.86 3.761-4.154 4.588-6.882l6.82 2.232c-1.075 4.092-3.348 7.543-6.82 10.354-3.43 2.81-7.791 4.216-13.082 4.216Zm62.398-.93h-7.502V45.214H94.05V64h-7.44V20.042h7.44v18.166h20.646V20.042h7.502V64Zm39.974 0-4.155-11.036h-18.6L135.325 64h-7.874l17.112-43.958h8.618L170.293 64h-8.121Zm-13.455-35.898-6.696 17.98h13.392l-6.696-17.98ZM203.125 64h-27.59V20.042h7.44v36.89h20.15V64Zm33.126 0-13.702-19.034-5.828 6.386V64h-7.44V20.042h7.44v21.08l18.91-21.08h9.796l-17.794 19.406L245.613 64h-9.362Zm14.828-43.958h15.128c4.134 0 7.399 1.095 9.796 3.286 2.398 2.19 3.596 5.043 3.596 8.556 0 2.273-.599 4.257-1.798 5.952-1.198 1.653-2.769 2.831-4.712 3.534 2.356.62 4.258 1.88 5.704 3.782 1.447 1.901 2.17 4.133 2.17 6.696 0 3.555-1.26 6.469-3.782 8.742-2.521 2.273-5.807 3.41-9.858 3.41h-16.244V20.042Zm7.378 18.6h6.758c2.15 0 3.844-.558 5.084-1.674 1.24-1.116 1.86-2.604 1.86-4.464 0-1.901-.64-3.39-1.922-4.464-1.24-1.116-2.976-1.674-5.208-1.674h-6.572v12.276Zm0 19.034h7.564c2.232 0 4.01-.558 5.332-1.674 1.364-1.157 2.046-2.707 2.046-4.65 0-1.943-.64-3.493-1.922-4.65-1.24-1.199-2.976-1.798-5.208-1.798h-7.812v12.772ZM315.251 64h-27.156V20.042h27.156v6.944h-19.716v11.656h17.856V45.4h-17.856v11.656h19.716V64Zm38.355 0-4.154-11.036h-18.6L326.76 64h-7.874l17.112-43.958h8.618L361.728 64h-8.122Zm-13.454-35.898-6.696 17.98h13.392l-6.696-17.98Zm54.318-1.054h-14.322V64h-7.44V27.048h-14.26v-7.006h36.022v7.006Z"/><path fill="#03938F" d="M760.114 86H401l32.148-86h362.397l-35.431 86Z"/><path fill="#fff" d="M466.8 66.93c-6.159 0-11.408-2.087-15.748-6.262-4.299-4.175-6.448-9.713-6.448-16.616 0-6.861 2.191-12.4 6.572-16.616 4.381-4.216 9.569-6.324 15.562-6.324 5.291 0 9.631 1.343 13.02 4.03 3.431 2.687 5.683 6.097 6.758 10.23l-7.006 2.356c-.703-2.852-2.129-5.167-4.278-6.944-2.149-1.777-4.981-2.666-8.494-2.666-3.927 0-7.337 1.405-10.23 4.216-2.852 2.77-4.278 6.675-4.278 11.718 0 4.919 1.426 8.783 4.278 11.594 2.852 2.77 6.283 4.154 10.292 4.154 3.431 0 6.262-.93 8.494-2.79 2.232-1.86 3.761-4.154 4.588-6.882l6.82 2.232c-1.075 4.092-3.348 7.543-6.82 10.354-3.431 2.81-7.791 4.216-13.082 4.216Zm62.398-.93h-7.502V47.214H501.05V66h-7.44V22.042h7.44v18.166h20.646V22.042h7.502V66Zm17.467 0h-7.564V22.042h7.564V66Zm29.425.93c-6.158 0-11.408-2.087-15.748-6.262-4.298-4.175-6.448-9.713-6.448-16.616 0-6.861 2.191-12.4 6.572-16.616 4.382-4.216 9.569-6.324 15.562-6.324 5.291 0 9.631 1.343 13.02 4.03 3.431 2.687 5.684 6.097 6.758 10.23l-7.006 2.356c-.702-2.852-2.128-5.167-4.278-6.944-2.149-1.777-4.98-2.666-8.494-2.666-3.926 0-7.336 1.405-10.23 4.216-2.852 2.77-4.278 6.675-4.278 11.718 0 4.919 1.426 8.783 4.278 11.594 2.852 2.77 6.283 4.154 10.292 4.154 3.431 0 6.262-.93 8.494-2.79 2.232-1.86 3.762-4.154 4.588-6.882l6.82 2.232c-1.074 4.092-3.348 7.543-6.82 10.354-3.43 2.81-7.791 4.216-13.082 4.216Zm55.306-.93-4.154-11.036h-18.6L604.55 66h-7.874l17.112-43.958h8.618L639.518 66h-8.122Zm-13.454-35.898-6.696 17.98h13.392l-6.696-17.98ZM681.88 66h-6.014l-.558-5.58c-1.075 1.819-2.769 3.369-5.084 4.65-2.315 1.24-5.105 1.86-8.37 1.86-5.993 0-11.098-2.067-15.314-6.2-4.216-4.175-6.324-9.755-6.324-16.74 0-4.63 1.054-8.721 3.162-12.276 2.149-3.555 4.877-6.2 8.184-7.936 3.307-1.777 6.903-2.666 10.788-2.666 5.084 0 9.341 1.26 12.772 3.782 3.472 2.521 5.828 5.725 7.068 9.61l-7.006 2.666c-.785-2.645-2.294-4.836-4.526-6.572-2.232-1.736-5.001-2.604-8.308-2.604-3.927 0-7.337 1.385-10.23 4.154-2.893 2.77-4.34 6.717-4.34 11.842 0 5.084 1.405 9.052 4.216 11.904 2.811 2.81 6.241 4.216 10.292 4.216 3.968 0 6.985-1.033 9.052-3.1 2.108-2.108 3.286-4.36 3.534-6.758h-14.508v-6.51h21.514V66Zm17.671-33.666c-2.894 2.77-4.34 6.655-4.34 11.656s1.446 8.907 4.34 11.718c2.893 2.77 6.344 4.154 10.354 4.154 4.009 0 7.46-1.385 10.354-4.154 2.934-2.81 4.402-6.717 4.402-11.718s-1.468-8.887-4.402-11.656c-2.894-2.81-6.345-4.216-10.354-4.216-4.01 0-7.461 1.405-10.354 4.216Zm-8.804 23.932c-2.108-3.555-3.162-7.647-3.162-12.276 0-4.63 1.054-8.7 3.162-12.214 2.149-3.555 4.898-6.22 8.246-7.998 3.348-1.777 6.985-2.666 10.912-2.666 3.926 0 7.564.889 10.912 2.666 3.348 1.777 6.096 4.443 8.246 7.998 2.149 3.513 3.224 7.585 3.224 12.214 0 4.63-1.075 8.721-3.224 12.276-2.15 3.555-4.898 6.22-8.246 7.998-3.348 1.777-6.986 2.666-10.912 2.666-3.927 0-7.564-.889-10.912-2.666-3.348-1.777-6.097-4.443-8.246-7.998Z"/></svg>